<?xml version="1.0" encoding="utf-8"?>
<!-- Generator: Adobe Illustrator 27.5.0, SVG Export Plug-In . SVG Version: 6.00 Build 0)  -->
<svg version="1.1" xmlns="http://www.w3.org/2000/svg" xmlns:xlink="http://www.w3.org/1999/xlink" x="0px" y="0px"
	 viewBox="0 0 500 500" style="enable-background:new 0 0 500 500;" xml:space="preserve">
<g id="BACKGROUND">
	<rect x="0" style="fill:#FFFFFF;" width="499.999" height="500"/>
</g>
<g id="OBJECTS">
	<g>
		<g>
			<text transform="matrix(1 0 0 1 115.0493 381.4256)"><tspan x="0" y="0" style="fill:#AFDFE2; font-family:'Outfit-Black'; font-size:41.422px; letter-spacing:4;">super</tspan><tspan x="132.632" y="0" style="fill:#1D3244; font-family:'Outfit-Black'; font-size:41.422px; letter-spacing:4;">clean</tspan></text>
			
				<text transform="matrix(1 0 0 1 140.5849 400.0477)" style="fill:#1D3244; font-family:'Lato-Semibold'; font-size:14px; letter-spacing:2;">your tagline goes here</text>
		</g>
		<g>
			<g>
				<g>
					<path style="fill:#AFDFE2;" d="M285.574,321.775c-5.798-1.865-12.723-7.147-15.581-21.225c-3.72-0.543-6.87-0.585-9.016-0.503
						c1.403,4.56,2.868,9.219,4.334,13.709c3.773,11.56,17.97,17.22,29.523,16.01c4.268-0.446,7.853-1.756,10.59-3.761
						c-1.012-1.907-2.085-3.672-3.203-5.313c-3.162,1.256-6.658,2.064-10.188,2.064C289.866,322.757,287.69,322.456,285.574,321.775
						z"/>
					<path style="fill:#AFDFE2;" d="M286.493,318.92c4.565,1.468,9.55,0.852,13.904-0.74c-8.321-10.758-18.751-15.26-27.193-17.054
						C275.397,310.699,279.899,316.798,286.493,318.92z"/>
				</g>
			</g>
			<g>
				<g>
					<path style="fill:#BFEAEF;" d="M254.566,289.203c-3.473-11.699-5.97-20.666-6.012-20.815l0.049-0.014l-0.674-2.305l-7.37-0.579
						c0.941,7.749,2.195,16.938,3.861,27.492C247.838,291.818,251.22,290.552,254.566,289.203z"/>
				</g>
				<g>
					<path style="fill:#BFEAEF;" d="M235.383,295.828c2.06-0.596,4.108-1.237,6.149-1.899c-1.754-11.069-3.056-20.652-4.023-28.679
						l-9.701-0.763c-0.171,1.251-0.342,2.498-0.512,3.732c-1.496,10.846-2.914,21.154-3.503,30.57
						C227.683,297.921,231.551,296.938,235.383,295.828z"/>
				</g>
				<g>
					<path style="fill:#BFEAEF;" d="M220.748,299.448c0.561-9.755,2.029-20.417,3.577-31.637c0.162-1.177,0.325-2.367,0.488-3.559
						l-12.259-0.964c-6.501,14.622-10.751,27.627-12.769,39.103C206.801,301.881,213.807,300.875,220.748,299.448z"/>
				</g>
				<g>
					<path style="fill:#BFEAEF;" d="M196.75,302.578c1.861-11.021,5.717-23.371,11.604-37.138c-1.434,0.974-2.839,1.965-4.192,2.983
						c-11.936,8.977-16.562,21.952-15.45,34.314C191.383,302.783,194.065,302.722,196.75,302.578z"/>
				</g>
				<path style="fill:#A4DADD;" d="M195.744,310.412c-0.554,0.01-1.109,0.017-1.663,0.02l-3.617,0.97
					c1.195,3.75,2.923,7.331,5.153,10.588C195.35,318.331,195.399,314.469,195.744,310.412z"/>
				<path style="fill:#A4DADD;" d="M217.377,308.299c-6.145,1.041-12.368,1.7-18.632,2.004c-0.517,5.792-0.404,11.158,0.371,16.088
					c6.793,7.385,16.584,12.276,28.578,12.276h1.361c-6.337-7.878-8.488-18.495-8.537-30.957
					C219.472,307.909,218.427,308.116,217.377,308.299z"/>
				<path style="fill:#A4DADD;" d="M243.204,305.621c-0.159-1.205-0.321-2.428-0.49-3.671c-1.919,0.63-3.845,1.241-5.782,1.811
					c-4.419,1.304-8.899,2.409-13.418,3.353c-0.018,13.021,2.267,23.858,9.304,31.324c0.075,0.079,0.161,0.15,0.237,0.229h26.216
					c-0.828-0.42-1.614-0.857-2.352-1.317C246.538,330.871,245.139,320.28,243.204,305.621z"/>
				<path style="fill:#A4DADD;" d="M295.146,332.751c-1.105,0.115-2.233,0.173-3.373,0.173c-12.002,0-25.438-6.361-29.314-18.235
					c-1.933-5.921-3.858-12.118-5.646-18.009c-3.688,1.554-7.425,2.986-11.205,4.295c0.199,1.447,0.386,2.861,0.57,4.253
					c2.383,18.046,3.74,28.273,21.252,33.439h43.121c-1.091-3.634-2.357-6.924-3.759-9.914
					C303.701,330.877,299.769,332.267,295.146,332.751z"/>
			</g>
			<path style="fill:#BFEAEF;" d="M284.532,214.529c6.486,0.373,13.059,1.465,19.278,4.133c3.109,1.315,6.11,3.071,8.769,5.397
				c2.651,2.321,4.934,5.258,6.432,8.647c1.515,3.379,2.127,7.183,1.97,10.866c-0.165,3.694-1.038,7.267-2.298,10.607
				c-1.254,3.352-2.945,6.457-4.85,9.369c-1.911,2.905-3.99,5.681-6.275,8.23c-4.55,5.126-9.598,9.703-14.974,13.78
				c-5.363,4.095-11.017,7.758-16.865,11.034c-11.706,6.546-24.144,11.623-36.962,15.394c-6.412,1.893-12.946,3.391-19.554,4.539
				c-6.615,1.12-13.316,1.817-20.066,2.083c-6.751,0.184-13.565-0.051-20.356-1.083c-6.778-1.055-13.594-2.747-20.034-5.954
				c-3.214-1.586-6.33-3.559-9.101-6.085c-2.763-2.511-5.201-5.592-6.772-9.136c-1.601-3.522-2.253-7.436-2.091-11.165
				c0.19-3.74,1.109-7.308,2.501-10.544c2.908-6.431,7.135-11.815,11.921-16.408c0.605-0.569,1.191-1.155,1.808-1.705l1.875-1.62
				c1.225-1.103,2.558-2.075,3.837-3.098c1.305-0.994,2.678-1.897,4.005-2.843c1.357-0.909,2.748-1.767,4.127-2.627l-3.516,3.374
				c-1.125,1.17-2.286,2.289-3.366,3.488c-2.192,2.357-4.329,4.75-6.215,7.31c-1.927,2.526-3.687,5.139-5.216,7.84
				c-1.521,2.706-2.711,5.534-3.574,8.371c-1.709,5.684-1.484,11.502,1.148,16.047c1.309,2.267,3.105,4.259,5.285,5.918
				c2.179,1.658,4.689,3.013,7.357,4.124c5.359,2.206,11.339,3.385,17.382,4.011c6.067,0.576,12.257,0.645,18.443,0.216
				c12.385-0.799,24.756-3.172,36.798-6.66c12.052-3.489,23.805-8.087,34.935-13.799c11.058-5.784,21.662-12.639,30.396-21.23
				c4.355-4.272,8.165-9.049,10.822-14.251c1.292-2.608,2.24-5.337,2.645-8.106c0.413-2.77,0.18-5.551-0.608-8.228
				c-0.795-2.675-2.249-5.205-4.211-7.425c-1.967-2.221-4.418-4.102-7.054-5.764c-2.648-1.655-5.543-2.996-8.536-4.129
				C290.786,216.275,287.68,215.367,284.532,214.529z"/>
			<g>
				
					<rect x="165.917" y="176.629" transform="matrix(0.2025 -0.9793 0.9793 0.2025 21.3862 385.5185)" style="fill:#156CBF;" width="162.933" height="6"/>
			</g>
			
				<rect x="227.255" y="246.395" transform="matrix(0.9792 0.203 -0.203 0.9792 56.0814 -41.9056)" style="fill:#075493;" width="10.07" height="11.992"/>
			
				<rect x="257.446" y="96.539" transform="matrix(0.9792 0.203 -0.203 0.9792 28.2686 -50.732)" style="fill:#075493;" width="7.901" height="31.746"/>
			<path style="fill:#156CBF;" d="M248.596,267.987l-36.831-3.901v0c0.776-7.323,7.341-12.63,14.663-11.855l10.313,1.092
				C244.064,254.099,249.371,260.664,248.596,267.987L248.596,267.987z"/>
			<path style="fill:#BFEAEF;" d="M281.653,255.6c1.769-0.78,4.589-1.796,7.287-1.796c-2.698,0-5.518-1.016-7.287-1.796
				c-0.78-1.769-1.796-4.589-1.796-7.287c0,2.698-1.016,5.518-1.795,7.287c-1.769,0.78-4.589,1.796-7.287,1.796
				c2.698,0,5.518,1.016,7.287,1.796c0.78,1.769,1.795,4.589,1.795,7.287C279.857,260.189,280.873,257.369,281.653,255.6z"/>
			<path style="fill:#BFEAEF;" d="M272.684,207.059c2.861-1.261,7.422-2.904,11.786-2.904c-4.363,0-8.925-1.643-11.786-2.904
				c-1.261-2.86-2.904-7.422-2.904-11.786c0,4.363-1.643,8.925-2.904,11.786c-2.861,1.261-7.422,2.904-11.786,2.904
				c4.363,0,8.925,1.643,11.786,2.904c1.261,2.86,2.904,7.422,2.904,11.786C269.78,214.481,271.423,209.919,272.684,207.059z"/>
			<path style="fill:#BFEAEF;" d="M197.859,236.788c3.505-1.545,9.094-3.558,14.441-3.558c-5.346,0-10.936-2.013-14.441-3.558
				c-1.545-3.505-3.558-9.094-3.558-14.441c0,5.346-2.013,10.936-3.558,14.441c-3.505,1.545-9.094,3.558-14.441,3.558
				c5.346,0,10.936,2.013,14.441,3.558c1.545,3.505,3.558,9.094,3.558,14.441C194.301,245.882,196.314,240.293,197.859,236.788z"/>
		</g>
	</g>
</g>
</svg>
